<?xml version="1.0" encoding="UTF-8" standalone="no"?><!DOCTYPE svg PUBLIC "-//W3C//DTD SVG 1.1//EN" "http://www.w3.org/Graphics/SVG/1.1/DTD/svg11.dtd"><svg width="100%" height="100%" viewBox="0 0 910 375" version="1.1" xmlns="http://www.w3.org/2000/svg" xmlns:xlink="http://www.w3.org/1999/xlink" xml:space="preserve" xmlns:serif="http://www.serif.com/" style="fill-rule:evenodd;clip-rule:evenodd;stroke-linejoin:round;stroke-miterlimit:2;"><g><path d="M43.572,114.898l-39.611,0l0,3.962l22.579,1.584l177.062,254.305l8.319,-0l-0,-32.085l-7.923,-0l-160.426,-227.766Zm133.887,0l-0,3.962c14.26,-0 27.332,12.279 27.728,28.916l2.773,157.257l3.565,-0l0.396,-157.257c-0,-16.241 13.468,-28.916 27.728,-28.916l-0,-3.962l-62.19,0Zm-142.997,223.805l-2.773,-176.667l-3.565,-0l-0.396,176.667c-0,16.24 -13.864,28.916 -27.728,28.916l-0,3.961l62.19,-0l-0,-3.961c-14.26,-0 -27.728,-12.28 -27.728,-28.916Z" style="fill:#fff;fill-rule:nonzero;"/><path d="M107.156,82.169l-34.07,23.159l2.227,3.276l20.769,-11.723l137.617,202.454l-18.542,14.999l2.226,3.276l56.347,-38.301l-2.227,-3.276l-23.39,13.504l-140.957,-207.368Zm120.882,-82.169l-97.295,66.136l1.781,2.621l50.148,-31.214c29.064,-17.84 55.595,-11.926 73.253,9.119l5.109,6.107l3.931,-2.673l-36.927,-50.096Zm11.931,104.925c8.816,15.082 5.576,33.569 -8.72,44.245l-29.471,21.469l1.781,2.621l30.585,-19.831c18.463,-11.593 33.569,-5.576 44.349,8.17l6.668,8.4l3.931,-2.672l-50.549,-74.365l-3.931,2.673l5.357,9.29Z" style="fill:#fff;fill-rule:nonzero;"/><path d="M273.555,338.881c0,18.707 15.589,34.296 34.296,34.296c18.707,-0 34.296,-15.589 34.296,-34.296c-0,-18.707 -15.589,-34.296 -34.296,-34.296c-18.707,0 -34.296,15.589 -34.296,34.296Z" style="fill:#fff;fill-rule:nonzero;"/><g><path d="M425.847,245.6l-16.711,-44.682l-1.816,0l5.812,43.956l0,125.69l-43.228,-0l-0,-256.103l35.237,0l73.016,127.87l15.62,43.955l2.18,-0l-5.812,-43.229l-0,-126.78l43.228,0l0,256.103l-35.236,0l-72.29,-126.78Z" style="fill:#fff;"/><path d="M566.067,116.277l127.144,0l-0,42.139l-81.372,0l-0,62.482l73.743,0l-0,42.139l-73.743,-0l-0,65.388l82.825,-0l-0,42.139l-128.597,-0l0,-254.287Z" style="fill:#fff;"/><path d="M722.272,116.277l127.143,0l-0,42.139l-81.372,0l0,66.115l74.833,-0l0,42.139l-74.833,-0l0,103.894l-45.771,-0l-0,-254.287Z" style="fill:#fff;"/></g><path d="M906.321,373.119l-35.096,-0l-0,-94.375l35.096,-0l0,94.375Zm2.968,-123.622c0,5.529 -2.008,10.302 -6.024,14.318c-4.132,3.957 -8.934,5.936 -14.405,5.936c-5.645,0 -10.476,-2.008 -14.492,-6.024c-3.958,-4.132 -5.937,-8.963 -5.937,-14.492c0,-5.646 1.979,-10.447 5.937,-14.405c4.132,-3.958 8.934,-5.937 14.405,-5.937c5.762,0 10.622,2.008 14.58,6.024c3.957,3.958 5.936,8.818 5.936,14.58Z" style="fill:#fff;fill-rule:nonzero;"/></g></svg>